<?xml version="1.0" encoding="utf-8"?>
<!-- Generator: Adobe Illustrator 24.1.1, SVG Export Plug-In . SVG Version: 6.00 Build 0)  -->
<svg version="1.1" id="Layer_1" xmlns="http://www.w3.org/2000/svg" xmlns:xlink="http://www.w3.org/1999/xlink" x="0px" y="0px"
	 viewBox="0 0 512 512" style="enable-background:new 0 0 512 512;" xml:space="preserve">
<style type="text/css">
	.st0{fill:#333333;}
</style>
<g id="XMLID_1_">
	<path id="XMLID_3_" class="st0" d="M412.8,136.3H285.7c-10.2,0-19.5,6.5-19.5,16.7v49.2c0,10.2,10.2,19.5,19.5,19.5h132.6
		c9.3,0,15.8-7.4,16.7-16.7c0-0.9,0-51.9,0-51.9c0-10.2-6.5-16.7-16.7-16.7H412.8z"/>
	<path id="XMLID_4_" class="st0" d="M236.5,125.2c10.2,0,18.6,4.6,24.1,12.1c5.6-7.4,14.8-12.1,24.1-12.1h133.6
		c6.5,0,14.8-0.9,16.7,2.8V61.2H85.3V128c3.7-3.7,11.1-2.8,17.6-2.8H236.5z"/>
	<path id="XMLID_5_" class="st0" d="M511.1,316.3l-66.8-100.2c-5.6,9.3-14.8,15.8-26,15.8H285.7c-10.2,0-18.6-5.6-24.1-12.1
		c-6.5,7.4-15.8,12.1-24.1,12.1H103.9c-11.1,0-20.4-6.5-26-15.8l-1.9,1.9L0,316.3H511.1z"/>
	<path id="XMLID_6_" class="st0" d="M25,402.6c2.8,2.8,4.6,5.6,10.2,5.6h-1.9v30.6c0,6.5,11.1,12.1,21.3,12.1
		c10.2,0,21.3-5.6,21.3-12.1V384c0,0,8.3,2.8,11.1,5.6c7.4,7.4,11.1,18.6,23.2,18.6c17.6,0,17.6-24.1,36.2-24.1
		c17.6,0,17.6,24.1,36.2,24.1s17.6-24.1,36.2-24.1c17.6,0,17.6,24.1,36.2,24.1s17.6-24.1,36.2-24.1c17.6,0,17.6,24.1,36.2,24.1
		S345,384,363.6,384c17.6,0,17.6,24.1,36.2,24.1c13,0,16.7-13,26-20.4c2.8-1.9,5.6-3.7,10.2-3.7c0.9,0,0.9,0,0.9,0v53.8
		c0,6.5,11.1,12.1,21.3,12.1c10.2,0,21.3-5.6,21.3-12.1v-30.6c0,0,6.5-1.9,10.2-4.6c8.3-7.4,11.1-19.5,22.3-19.5v-55.7H0.9v55.7
		C13.9,383.1,17.6,395.1,25,402.6z"/>
	<path id="XMLID_7_" class="st0" d="M255.1,153c0-10.2-8.3-16.7-18.6-16.7H103.9c-10.2,0-17.6,6.5-17.6,16.7c0,0,0,51,0,51.9
		c0.9,8.3,8.3,16.7,17.6,16.7h133.6c10.2,0,17.6-10.2,17.6-19.5V153L255.1,153z"/>
</g>
</svg>
